<?xml version="1.0" encoding="utf-8"?>
<!-- Generator: Adobe Illustrator 27.0.0, SVG Export Plug-In . SVG Version: 6.00 Build 0)  -->
<svg version="1.1" id="Layer_1" xmlns="http://www.w3.org/2000/svg" xmlns:xlink="http://www.w3.org/1999/xlink" x="0px" y="0px"
	 viewBox="0 0 374 374" style="enable-background:new 0 0 374 374;" xml:space="preserve">
<polygon points="19.8,264.9 19.8,354.2 109.1,354.2 109.1,345.8 109.1,264.9 26.8,264.9 "/>
<polygon points="354.2,109.1 354.2,19.8 264.9,19.8 264.9,28.7 264.9,109.1 346.9,109.1 "/>
<path d="M186.9,102.8c17.1,0,31.9,5.4,44.3,16.3h0.1V17.8c-14.1-3-28.9-4.6-44.3-4.6c-33.1,0-63,7-89.6,21.2s-47.7,34.4-63,60.9
	S11.3,152.3,11.3,187c0,15.7,1.4,30.4,4.5,44.3h109c-5.4-12.1-8.2-27-8.2-44.3c0-27.4,6.7-48.4,20-62.7S166.7,102.8,186.9,102.8z"/>
<path d="M358.1,142.7H248.9c5.5,12.1,8.3,27,8.3,44.3c0,27-7,47.8-21,62.3c-14,14.5-30.8,21.9-50.6,21.9c-16.7,0-31.1-5.1-43.1-15.7
	v100.9c13.7,2.9,28.1,4.3,43.1,4.3c33.1,0,63.1-7.1,90-21.2s48.1-34.4,63.7-60.9s23.3-57.1,23.3-91.7
	C362.7,171.4,361.1,156.7,358.1,142.7z"/>
</svg>
