<?xml version="1.0" encoding="utf-8"?>
<!-- Generator: Adobe Illustrator 27.0.0, SVG Export Plug-In . SVG Version: 6.00 Build 0)  -->
<svg version="1.1" id="Layer_1" xmlns="http://www.w3.org/2000/svg" xmlns:xlink="http://www.w3.org/1999/xlink" x="0px" y="0px"
	 viewBox="0 0 700 700" style="enable-background:new 0 0 700 700;" xml:space="preserve">
<polygon points="20.7,503.4 20.7,679.4 196.7,679.4 196.7,662.8 196.7,503.4 34.4,503.4 "/>
<polygon points="679.7,196.5 679.7,20.4 503.7,20.4 503.7,38.1 503.7,196.5 665.2,196.5 "/>
<path d="M349.9,184c33.8,0,62.8,10.6,87.2,32.2h0.3V16.5c-27.8-6-56.9-9.1-87.2-9.1c-65.2,0-124.1,13.8-176.6,41.8
	s-94,67.8-124.1,120S4.1,281.6,4.1,349.9c0,30.9,2.9,60,8.8,87.2h214.7c-10.6-23.9-16.1-53.2-16.1-87.2c0-54,13.2-95.3,39.5-123.6
	S310.2,184,349.9,184z"/>
<path d="M687.2,262.7h-215c10.9,23.9,16.4,53.2,16.4,87.2c0,53.2-13.8,94.3-41.3,122.8c-27.5,28.6-60.8,43.1-99.7,43.1
	c-33,0-61.3-10.1-84.9-30.9v198.9c27,5.7,55.3,8.6,84.9,8.6c65.2,0,124.4-14,177.4-41.8s94.8-67.8,125.4-120
	c30.6-52.2,46-112.4,46-180.7C696.3,319.3,693.2,290.2,687.2,262.7z"/>
</svg>
